<?xml version="1.0" encoding="utf-8"?>
<!-- Generator: Adobe Illustrator 23.0.1, SVG Export Plug-In . SVG Version: 6.00 Build 0)  -->
<svg version="1.1" id="Logo" xmlns="http://www.w3.org/2000/svg" xmlns:xlink="http://www.w3.org/1999/xlink" x="0px" y="0px"
	 viewBox="0 0 1000 1000" style="enable-background:new 0 0 1000 1000;" xml:space="preserve">
<style type="text/css">
	.st0{fill:none;stroke:#00D59C;stroke-width:30;stroke-miterlimit:10;}
	.st1{fill:none;stroke:#FDDE04;stroke-width:30;stroke-miterlimit:10;}
</style>
<g id="chico_x27_s_adventures">
	<path d="M286.14,343.01c-3.54-1.96-6.6-4.6-9.16-7.92c-2.26-3.17-4.3-7.2-6.11-12.1c-1.81-4.9-3.17-9.99-4.07-15.27
		c-1.81-8.9-3.02-20.58-3.62-35.06c-0.15-3.47-0.23-9.42-0.23-17.87v-14.25c0.15-4.07,0.23-8.29,0.23-12.67
		c0-8.9,0.53-15.91,1.58-21.03c-0.45-2.26-0.68-4.6-0.68-7.01c0-9.05,3.39-16.36,10.18-21.94c6.79-5.58,15.38-8.37,25.78-8.37
		c3.92,0,7.54,1.06,10.86,3.17c3.31,2.11,4.98,4.75,4.98,7.92c0,1.51-0.6,2.71-1.81,3.62c-1.21,0.9-2.71,1.36-4.52,1.36
		c-1.51,0-3.13-0.23-4.86-0.68c-1.74-0.45-2.83-1.13-3.28-2.04h-2.94v-0.45c-5.58,0-10.26,1.21-14.02,3.62
		c-2.71,1.96-4.83,5.2-6.33,9.73c-0.6,1.66-1.06,3.77-1.36,6.33c-0.3,2.57-0.45,4.9-0.45,7.01c-0.15,1.21-0.23,3.62-0.23,7.24
		l0.45,7.92l0.23,7.69c0,2.26-0.3,4.9-0.9,7.92c-0.76,3.77-1.13,6.41-1.13,7.92v5.43c0,5.88,0.23,13.95,0.68,24.2
		c0.15,8.59,1.13,17.19,2.94,25.78c1.36,7.99,3.92,14.78,7.69,20.35c3.62,5.73,8.52,8.59,14.7,8.59c2.56,0,5.73-1.36,9.5-4.07
		c4.07-2.71,6.93-4.07,8.59-4.07c2.11,0,4.3,1.13,6.56,3.39c0,5.58-2.11,9.88-6.33,12.89c-3.92,2.71-8.59,4.45-14.02,5.2
		c-3.02,0.3-5.43,0.45-7.24,0.45C293.57,345.95,289.69,344.97,286.14,343.01z"/>
	<path d="M377.97,343.57c-0.98-1.43-1.47-3.2-1.47-5.32c0-31.51-0.6-58.13-1.81-79.84c-3.62-0.6-6.18-0.9-7.69-0.9
		c-6.18,0-10.63,0.53-13.34,1.58c0,8.45,0.68,21.19,2.04,38.22c1.21,18.09,1.81,30.91,1.81,38.45c0,1.51-0.45,2.9-1.36,4.18
		c-0.9,1.28-2.04,1.92-3.39,1.92c-1.96,0-3.77-3.47-5.43-10.4c-2.41-10.25-4.38-31.74-5.88-64.46c-1.06-22.17-1.58-45.99-1.58-71.47
		c-0.15-4.67-0.23-11.31-0.23-19.9c0-2.71,1.28-4.07,3.85-4.07c1.51,0,3.05,0.38,4.64,1.13c1.58,0.76,2.75,1.58,3.51,2.49
		c-0.6,4.83-0.9,10.48-0.9,16.96c0,6.33,0.3,14.02,0.9,23.07c0.45,10.4,0.68,18.25,0.68,23.52v4.07c-0.15,1.21-0.23,2.64-0.23,4.3
		c0,1.51,0.15,3.47,0.45,5.88c0.9,0,2.41-0.07,4.52-0.23c2.11-0.15,4.22-0.37,6.33-0.68c4.98-0.45,8.67-0.68,11.08-0.68
		c0-13.12-0.15-25.25-0.45-36.41l-0.45-37.77v-6.11c1.96,0,3.69,0.34,5.2,1.02c1.51,0.68,2.64,1.55,3.39,2.6
		c1.36,1.66,2.18,4.52,2.49,8.59v5.2c0,12.97,0.75,37.77,2.26,74.41c1.36,33.17,2.04,58.05,2.04,74.64c0,2.11-0.64,4-1.92,5.65
		c-1.28,1.66-2.83,2.49-4.64,2.49C380.42,345.72,378.95,345,377.97,343.57z"/>
	<path d="M412.23,335.32c0-3.62,2.26-5.43,6.79-5.43h2.71c0.6,0.15,1.28,0.23,2.04,0.23c1.21,0,2.07-0.37,2.6-1.13
		c0.53-0.75,0.79-2.11,0.79-4.07c0-12.81-0.76-30.31-2.26-52.47c-1.36-23.07-2.04-40.48-2.04-52.25c0-4.22,0.07-8.06,0.23-11.53
		l0.23-11.53c0-4.98-0.23-9.12-0.68-12.44c-1.66,0.6-3.39,0.9-5.2,0.9c-3.47,0-5.2-1.81-5.2-5.43c0-1.81,1.09-3.39,3.28-4.75
		c2.18-1.36,5.01-2.34,8.48-2.94c6.33-1.05,11.68-1.58,16.06-1.58c1.81,0,3.35,0.6,4.64,1.81c1.28,1.21,1.92,2.64,1.92,4.3
		c0,1.66-0.49,3.09-1.47,4.3c-0.98,1.21-2.23,1.81-3.73,1.81c-0.9,0-1.66-0.07-2.26-0.23h-1.81c-1.51,0-2.6,0.34-3.28,1.02
		c-0.68,0.68-1.02,1.92-1.02,3.73c0,15.98,0.98,38,2.94,66.04c1.81,29.4,2.71,51.49,2.71,66.27v8.59c1.05-0.15,2.56-0.23,4.52-0.23
		c6.33,0,9.5,2.64,9.5,7.92v1.36l-5.65,3.84c-0.15,0-0.6,0.04-1.36,0.11c-0.76,0.08-2.26,0.11-4.52,0.11
		c-5.13,0.3-8.29,0.45-9.5,0.45C418.71,342.1,412.23,339.84,412.23,335.32z"/>
	<path d="M495.12,343.01c-3.54-1.96-6.6-4.6-9.16-7.92c-2.26-3.17-4.3-7.2-6.11-12.1c-1.81-4.9-3.17-9.99-4.07-15.27
		c-1.81-8.9-3.02-20.58-3.62-35.06c-0.15-3.47-0.23-9.42-0.23-17.87v-14.25c0.15-4.07,0.23-8.29,0.23-12.67
		c0-8.9,0.53-15.91,1.58-21.03c-0.45-2.26-0.68-4.6-0.68-7.01c0-9.05,3.39-16.36,10.18-21.94c6.79-5.58,15.38-8.37,25.78-8.37
		c3.92,0,7.54,1.06,10.86,3.17c3.31,2.11,4.98,4.75,4.98,7.92c0,1.51-0.6,2.71-1.81,3.62c-1.21,0.9-2.71,1.36-4.52,1.36
		c-1.51,0-3.13-0.23-4.86-0.68c-1.74-0.45-2.83-1.13-3.28-2.04h-2.94v-0.45c-5.58,0-10.26,1.21-14.02,3.62
		c-2.71,1.96-4.83,5.2-6.33,9.73c-0.6,1.66-1.06,3.77-1.36,6.33c-0.3,2.57-0.45,4.9-0.45,7.01c-0.15,1.21-0.23,3.62-0.23,7.24
		l0.45,7.92l0.23,7.69c0,2.26-0.3,4.9-0.9,7.92c-0.76,3.77-1.13,6.41-1.13,7.92v5.43c0,5.88,0.23,13.95,0.68,24.2
		c0.15,8.59,1.13,17.19,2.94,25.78c1.36,7.99,3.92,14.78,7.69,20.35c3.62,5.73,8.52,8.59,14.7,8.59c2.56,0,5.73-1.36,9.5-4.07
		c4.07-2.71,6.93-4.07,8.59-4.07c2.11,0,4.3,1.13,6.56,3.39c0,5.58-2.11,9.88-6.33,12.89c-3.92,2.71-8.59,4.45-14.02,5.2
		c-3.02,0.3-5.43,0.45-7.24,0.45C502.54,345.95,498.66,344.97,495.12,343.01z"/>
	<path d="M570.32,344.59c-3.32-2.71-6.18-6.41-8.59-11.08c-4.38-8.14-7.62-19.3-9.72-33.47c-1.51-9.8-2.64-21.11-3.39-33.93
		l-0.23-11.99v-12.21c-0.15-3.92-0.23-8.67-0.23-14.25c0-9.05,0.38-17.04,1.13-23.97c0.6-7.24,2.11-14.4,4.52-21.49
		c2.41-6.18,5.88-10.55,10.4-13.12c2.71-1.21,5.43-1.81,8.14-1.81c7.99,0,14.32,3.17,19,9.5c5.12,7.09,8.52,15,10.18,23.75
		c2.41,10.56,3.77,20.66,4.07,30.31c0.6,10.71,0.9,20.81,0.9,30.31v12.89c0,2.57-0.38,7.39-1.13,14.48
		c-0.6,5.58-0.9,10.33-0.9,14.25v0.9c-0.91,4.22-1.36,9.2-1.36,14.93c0,4.22-0.9,8.59-2.71,13.12s-4.38,8.37-7.69,11.53
		c-3.32,3.62-7.09,5.43-11.31,5.43C577.33,348.66,573.63,347.31,570.32,344.59z M589.54,327.85c1.81-4.98,3.13-11.04,3.96-18.21
		c0.83-7.16,1.54-15.27,2.15-24.31c0.3-3.92,0.45-8.97,0.45-15.15l-0.23-20.81c-0.3-8.14-1.21-18.32-2.71-30.53
		c-1.21-10.4-3.47-19.6-6.79-27.59c-1.51-3.77-3.39-6.71-5.65-8.82c-2.26-2.11-4.68-3.17-7.24-3.17c-3.77,0-6.56,2.94-8.37,8.82
		c-2.26,6.18-3.77,12.97-4.52,20.36c-0.9,7.99-1.43,15.61-1.58,22.84l-0.23,7.46c-0.15,2.11-0.23,4.98-0.23,8.59v0.9
		c0,10.1,1.05,22.54,3.17,37.32c2.41,20.06,5.96,34.3,10.63,42.75c3.01,5.28,6.18,7.92,9.5,7.92
		C584.87,336.22,587.43,333.43,589.54,327.85z"/>
	<path d="M640.21,218.84c0-3.17,0.83-8.59,2.49-16.28c1.66-7.69,3.92-15,6.79-21.94c3.01-7.69,6.11-11.53,9.27-11.53
		c2.71,0,4.07,1.66,4.07,4.98c0,6.33-1.1,13.38-3.28,21.15c-2.19,7.77-4.94,14.36-8.25,19.79c-3.47,5.28-6.56,7.92-9.27,7.92
		C640.81,222.61,640.21,221.25,640.21,218.84z"/>
	<path d="M696.29,344.37c-2.41-1.36-3.62-2.94-3.62-4.75c0-1.81,0.45-3.28,1.36-4.41s2.18-1.7,3.84-1.7c1.51,0,3.69,0.6,6.56,1.81
		c3.17,1.21,5.12,1.81,5.88,1.81c2.86,0,5.46-1.24,7.8-3.73c2.34-2.49,4.18-5.77,5.54-9.84c2.71-7.54,4.07-14.32,4.07-20.35
		c0-6.48-1.02-13.31-3.05-20.47c-2.04-7.16-4.79-14.14-8.26-20.92l-3.62-7.24c-3.77-7.54-6.67-13.49-8.71-17.87
		c-2.04-4.37-3.81-9.12-5.31-14.25c-2.26-7.24-3.39-14.25-3.39-21.03c0-5.43,0.94-10.55,2.83-15.38c1.88-4.82,4.71-8.89,8.48-12.21
		c3.77-3.62,8.44-5.43,14.02-5.43c2.71,0,5.35,0.79,7.92,2.37c2.56,1.58,4.37,3.58,5.43,5.99l-3.84,4.75
		c-3.92,0-6.86-0.75-8.82-2.26c-2.71,0.3-5.09,1.62-7.13,3.96c-2.04,2.34-3.58,5.01-4.64,8.03c-0.9,2.87-1.36,5.73-1.36,8.59
		c0,5.73,0.79,11.57,2.38,17.53c1.58,5.96,3.65,11.57,6.22,16.85l15.83,31.66c2.56,5.43,4.6,11.53,6.11,18.32
		c1.5,6.79,2.26,13.57,2.26,20.36c0,9.95-2.41,19.3-7.24,28.04c-2.57,4.52-5.88,8.11-9.95,10.74c-4.07,2.64-8.59,3.96-13.57,3.96
		C704.89,347.31,700.21,346.32,696.29,344.37z"/>
	<path d="M182.33,556.14c-1.13-0.9-1.7-2.41-1.7-4.52v-29.63c-1.96-1.36-5.65-2.56-11.08-3.62c-5.43-1.05-10.56-1.73-15.38-2.04
		c-1.66,3.17-2.87,7.01-3.62,11.53l-0.9,4.52c-0.15,1.06-0.6,3.39-1.36,7.01c-0.76,3.62-1.58,6.75-2.49,9.39
		c-0.9,2.64-1.81,4.71-2.71,6.22c-5.73,0-9.05-1.5-9.95-4.52c1.66-2.41,3.54-9.5,5.65-21.26l7.46-41.39
		c3.31-19.6,6.37-36.34,9.16-50.21c2.79-13.87,5.77-25.48,8.93-34.83c3.47-10.4,6.79-15.61,9.95-15.61c3.17,0,5.58,0.6,7.24,1.81
		c0,6.03,1.43,20.58,4.3,43.65c3.01,22.62,4.52,38.07,4.52,46.37c0,7.99,0.83,19.45,2.49,34.38c1.51,15.23,2.26,27.37,2.26,36.41
		c0,5.13-2.49,7.69-7.46,7.69C185.23,557.5,183.46,557.05,182.33,556.14z M180.41,508.2c-0.45-6.63-1.21-14.85-2.26-24.65
		c-3.47-34.07-5.2-54.96-5.2-62.65v-1.81c-1.51,1.51-3.58,8.33-6.22,20.47c-2.64,12.14-5.09,25.14-7.35,39.01
		c-2.26,13.87-3.47,23.07-3.62,27.59c6.33,1.81,13.04,2.71,20.13,2.71C177.09,508.87,178.6,508.65,180.41,508.2z"/>
	<path d="M225.75,555.92c-2.19-1.36-3.28-3.24-3.28-5.65c3.31-3.32,4.98-12.14,4.98-26.46c0-8.59-0.68-21.11-2.04-37.54
		c-1.51-15.68-2.26-28.04-2.26-37.09l0.45-12.44c0.15-3.62,0.23-7.76,0.23-12.44c0-4.22-0.76-9.57-2.26-16.06
		c-1.81-6.79-2.71-11.53-2.71-14.25c0-5.28,5.8-7.92,17.42-7.92h3.39c8.14,0,15.23,2.49,21.26,7.46c4.82,4.22,8.9,10.33,12.21,18.32
		c2.26,5.43,4.22,12.97,5.88,22.62c0.9,8.45,1.36,15.08,1.36,19.9v7.24v10.63c-0.3,0.6-0.45,1.21-0.45,1.81
		c0,1.21,0.07,2.11,0.23,2.71c0.15,0.6,0.23,1.36,0.23,2.26c0,4.83-0.72,10.59-2.15,17.3c-1.43,6.71-3.51,13.54-6.22,20.47
		c-6.79,16.59-14.4,28.35-22.84,35.28c-4.98,3.92-10.18,5.88-15.61,5.88C230.54,557.95,227.94,557.27,225.75,555.92z M253.01,529.79
		c4.22-6.56,7.46-13.83,9.73-21.83c4.07-14.78,6.11-29.7,6.11-44.78c0-8.14-0.76-17.04-2.26-26.69c-1.66-9.35-5.2-17.79-10.63-25.33
		c-2.57-3.62-5.81-6.45-9.73-8.48c-3.92-2.04-8.37-3.05-13.34-3.05v0.23c0,13.57,0.9,34.08,2.71,61.52
		c1.81,27.29,2.71,47.95,2.71,61.97v21.49C243.88,541.37,248.78,536.35,253.01,529.79z"/>
	<path d="M328.55,558.86c-3.92-16.29-9.27-45.76-16.06-88.43c-7.54-45.53-12.14-72.6-13.8-81.2c0.6-2.86,2.64-4.3,6.11-4.3
		c2.56,0,5.73,9.65,9.5,28.95c3.92,19.45,7.76,41.47,11.53,66.04l6.11,40.03c2.41-18.09,4.3-31.66,5.65-40.71
		c2.86-20.81,4.98-38.03,6.33-51.68c1.36-13.64,2.04-26.58,2.04-38.79c2.26-3.01,4.98-4.52,8.14-4.52l4.75,2.49l-3.39,30.53
		c-0.76,9.35-2.64,26.31-5.65,50.89l-2.04,14.93c-1.66,13.27-3.32,25.78-4.98,37.54c-2.26,17.04-4.38,28.88-6.33,35.51
		c-0.9,3.47-1.81,5.2-2.71,5.2C331.64,561.35,329.91,560.52,328.55,558.86z"/>
	<path d="M392.33,557.73c-2.57-0.75-3.85-2.86-3.85-6.33V419.99c0-2.56-0.45-6.41-1.36-11.53c-1.06-4.67-1.58-8.52-1.58-11.54v-0.68
		c2.56-4.22,4.45-6.93,5.65-8.14c2.11,0,4.9-0.3,8.37-0.9c3.17-0.6,5.95-0.9,8.37-0.9c2.41,0,4.75,0.72,7.01,2.15
		c2.26,1.43,3.39,3.13,3.39,5.09c0,4.52-3.47,6.78-10.4,6.78h-3.17c-0.9-0.15-1.96-0.23-3.17-0.23c-1.36,0-2.19,0.08-2.49,0.23
		c0,5.13,0.3,11.31,0.9,18.55l0.45,6.33l0.45,12.44c0,2.87-0.23,7.24-0.68,13.12l-0.45,12.67l3.17-0.68c3.01-0.9,5.5-1.36,7.46-1.36
		c1.66,0,3.17,0.64,4.52,1.92c1.36,1.28,2.04,2.75,2.04,4.41c0,1.81-0.57,3.43-1.7,4.86c-1.13,1.43-2.53,2.15-4.18,2.15l-2.71-0.23
		h-2.94c-2.26,0-3.84,0.53-4.75,1.58v69.89l12.67-0.68c8.59,0,12.89,1.96,12.89,5.88v0.91c-0.9,1.81-2.57,3.28-4.98,4.41
		c-2.41,1.13-4.75,1.84-7.01,2.15l-7.46,0.23h-7.01C396.93,558.86,394.44,558.48,392.33,557.73z"/>
	<path d="M487.09,514.3c-10.56-36.34-19.68-69.73-27.37-100.19v74.18c0,6.33,0.6,17.11,1.81,32.34c1.05,16.59,1.58,27.29,1.58,32.12
		c0,1.36-0.83,2.53-2.49,3.51c-1.66,0.98-3.54,1.47-5.65,1.47c-3.17,0-4.75-1.21-4.75-3.62l0.45-6.56c0.3-4.82,0.45-7.99,0.45-9.5
		c0-7.99-0.45-20.66-1.36-38c-0.9-17.64-1.36-28.35-1.36-32.12v-28.95c0-4.67,0.23-11.61,0.68-20.81c0.6-7.99,0.9-14.93,0.9-20.81
		v-1.36c0-7.54,1.66-11.31,4.98-11.31c1.96,0,4.45,3.32,7.46,9.95c4.98,10.86,11.31,30.31,19,58.35
		c4.37,16.28,9.5,37.24,15.38,62.88c-0.15-0.6,1.05,4.6,3.62,15.61l0.23,1.13c0-14.62,0.15-27.74,0.45-39.35l0.45-39.35v-66.95
		c0.6-3.77,3.01-5.65,7.24-5.65c4.07,0,6.11,2.94,6.11,8.82v1.36c-0.9,1.81-1.36,4-1.36,6.56c0,9.2-0.23,23.07-0.68,41.62
		c-0.45,18.7-0.68,32.72-0.68,42.07v68.98c0,2.41-0.64,4.71-1.92,6.9c-1.28,2.18-2.83,3.28-4.64,3.28
		C502.62,560.89,496.44,545.37,487.09,514.3z"/>
	<path d="M554.6,555.8c-1.28-2.18-1.92-4.86-1.92-8.03c0-4.98,0.3-11.08,0.9-18.32l0.45-5.88l0.45-11.99
		c0-5.28-0.53-17.04-1.58-35.28c-1.06-18.24-1.58-30-1.58-35.28c0-0.45,0.04-1.32,0.11-2.6c0.07-1.28,0.11-3.28,0.11-5.99
		c0.15-3.01,0.23-6.71,0.23-11.08c0-11-0.76-18.02-2.26-21.03c-0.9,0-2.87,0.23-5.88,0.68l-6.33,0.45c-1.96,0-3.7-0.57-5.2-1.7
		c-1.51-1.13-2.26-2.6-2.26-4.41c0-1.81,1.81-3.39,5.43-4.75c5.28-1.81,14.25-3.09,26.91-3.84c5.12-0.3,8.22-0.45,9.27-0.45
		c1.81,0,3.47,0.6,4.98,1.81c1.5,1.21,2.26,2.71,2.26,4.52c0,1.81-0.64,3.28-1.92,4.41c-1.28,1.13-2.9,1.7-4.86,1.7l-4.07-0.23
		c-1.21-0.15-2.57-0.23-4.07-0.23h-2.26c1.05,10.26,1.58,19.53,1.58,27.82l-0.23,14.48c-0.15,4.38-0.23,9.27-0.23,14.7
		c0,7.24,0.3,15.91,0.91,26.01c0.75,12.52,1.13,21.19,1.13,26.01c0,5.73,0.3,12.52,0.9,20.36c0.6,7.99,0.9,14.78,0.9,20.36
		c0,7.39-2.19,11.08-6.56,11.08C557.66,559.08,555.88,557.99,554.6,555.8z"/>
	<path d="M619.4,549.36c-5.88-8.29-10.03-18.47-12.44-30.53c-2.71-12.81-4.45-26.54-5.2-41.16c-0.76-13.27-1.13-27.67-1.13-43.2
		v-18.77c0.15-5.28,0.23-10.86,0.23-16.74c-1.21-1.21-1.81-2.71-1.81-4.52c0-1.81,0.68-3.43,2.04-4.86
		c1.36-1.43,2.86-2.15,4.52-2.15c5.43,0,8.14,5.35,8.14,16.06c0,6.94,0.37,20.06,1.13,39.35c0.75,19.3,1.13,32.42,1.13,39.35
		c0.75,1.96,1.47,5.88,2.15,11.76c0.68,5.88,1.02,10.71,1.02,14.48c0,3.32,0.53,7.43,1.58,12.33c1.05,4.9,2.56,9.84,4.52,14.81
		c1.96,5.28,4.52,9.61,7.69,13c3.17,3.39,6.48,5.09,9.95,5.09c2.11,0,3.88-0.68,5.32-2.04c1.43-1.36,2.37-3.31,2.83-5.88
		c0.9-4.22,1.36-8.37,1.36-12.44v-44.1c0-5.58-0.53-12.67-1.58-21.26c-0.9-9.5-1.36-16.66-1.36-21.49v-1.58
		c0-2.41-0.08-4.6-0.23-6.56l-0.23-6.56c0-4.22-0.23-10.63-0.68-19.22c-0.6-7.69-0.9-14.17-0.9-19.45c0-1.66,0.87-3.09,2.6-4.3
		c1.73-1.21,3.65-1.81,5.77-1.81l5.65,5.2v3.85c0,1.81-0.3,4-0.9,6.56c-0.6,4.22-0.91,6.64-0.91,7.24c0,13.72,0.75,32.65,2.26,56.77
		c1.36,25.33,2.04,45.01,2.04,59.03c0,7.54-0.76,14.17-2.26,19.9c-0.91,3.47-2.15,6.26-3.73,8.37c-1.58,2.11-3.73,3.92-6.45,5.43
		c-2.57,1.5-5.88,2.26-9.95,2.26C632.21,561.57,624.83,557.5,619.4,549.36z"/>
	<path d="M726.38,553.66v-0.68c-0.45-7.99-1.81-16.88-4.07-26.69c-2.26-9.8-5.58-21.63-9.95-35.51c-3.32-10.4-6.11-19.75-8.37-28.04
		v89.11c0,2.41-0.42,4.18-1.24,5.32c-0.83,1.13-2.45,1.7-4.86,1.7c-1.81,0-3.24-0.57-4.3-1.7c-1.06-1.13-1.58-2.6-1.58-4.41v-1.81
		l0.45-66.49c0.3-19.6,0.45-41.69,0.45-66.27v-27.82c0-1.81,0.38-3.05,1.13-3.73c0.75-0.68,2.34-1.02,4.75-1.02
		c3.77,0,7.24,0.72,10.4,2.15c3.17,1.43,5.88,3.43,8.14,5.99c4.67,5.28,7.69,11.61,9.05,19c0.6,3.02,0.9,6.48,0.9,10.4
		c0,2.26-0.19,4.75-0.57,7.46c-0.38,2.71-0.64,4.45-0.79,5.2c-0.3,1.51-0.98,3.77-2.04,6.79c-1.06,3.02-1.74,4.98-2.04,5.88
		l-2.71,6.33l-2.26,5.88c0.15,5.43,1.09,12.29,2.83,20.58c1.73,8.29,3.65,15.98,5.77,23.07c1.51,4.98,4.22,13.27,8.14,24.88
		l6.56,19.9v0.45c0,2.57-0.23,4.75-0.68,6.56c-0.45,2.41-2.04,3.62-4.75,3.62C731.88,559.76,729.09,557.73,726.38,553.66z
		 M711.22,443.74l3.39-19.45c0.15-0.75,0.23-1.81,0.23-3.17c0-4.37-0.83-9.42-2.49-15.15c-0.91-2.71-2.08-5.01-3.51-6.9
		c-1.43-1.88-2.91-2.9-4.41-3.05l-0.45,22.62c-0.45,10.1-0.68,17.95-0.68,23.52c0,5.28,0.07,8.75,0.23,10.4
		C705.64,450.45,708.2,447.51,711.22,443.74z"/>
	<path d="M763.69,557.73c-2.57-0.75-3.84-2.86-3.84-6.33V419.99c0-2.56-0.45-6.41-1.36-11.53c-1.06-4.67-1.58-8.52-1.58-11.54v-0.68
		c2.56-4.22,4.45-6.93,5.65-8.14c2.11,0,4.9-0.3,8.37-0.9c3.17-0.6,5.95-0.9,8.37-0.9c2.41,0,4.75,0.72,7.01,2.15
		c2.26,1.43,3.39,3.13,3.39,5.09c0,4.52-3.47,6.78-10.4,6.78h-3.17c-0.9-0.15-1.96-0.23-3.17-0.23c-1.36,0-2.19,0.08-2.49,0.23
		c0,5.13,0.3,11.31,0.91,18.55l0.45,6.33l0.45,12.44c0,2.87-0.23,7.24-0.68,13.12l-0.45,12.67l3.17-0.68
		c3.01-0.9,5.5-1.36,7.46-1.36c1.66,0,3.17,0.64,4.52,1.92c1.36,1.28,2.04,2.75,2.04,4.41c0,1.81-0.57,3.43-1.7,4.86
		c-1.13,1.43-2.53,2.15-4.18,2.15l-2.71-0.23h-2.94c-2.26,0-3.84,0.53-4.75,1.58v69.89l12.67-0.68c8.59,0,12.89,1.96,12.89,5.88
		v0.91c-0.9,1.81-2.57,3.28-4.98,4.41c-2.41,1.13-4.75,1.84-7.01,2.15l-7.46,0.23h-7.01C768.29,558.86,765.8,558.48,763.69,557.73z"
		/>
	<path d="M820.01,559.54c-2.41-1.36-3.62-2.94-3.62-4.75s0.45-3.28,1.36-4.41s2.18-1.7,3.84-1.7c1.51,0,3.69,0.6,6.56,1.81
		c3.17,1.21,5.12,1.81,5.88,1.81c2.86,0,5.46-1.24,7.8-3.73c2.34-2.49,4.18-5.77,5.54-9.84c2.71-7.54,4.07-14.32,4.07-20.36
		c0-6.48-1.02-13.3-3.05-20.47c-2.04-7.16-4.79-14.14-8.26-20.92l-3.62-7.24c-3.77-7.54-6.67-13.49-8.71-17.87
		c-2.04-4.37-3.81-9.12-5.31-14.25c-2.26-7.24-3.39-14.25-3.39-21.03c0-5.43,0.94-10.55,2.83-15.38c1.88-4.82,4.71-8.89,8.48-12.21
		c3.77-3.62,8.44-5.43,14.02-5.43c2.71,0,5.35,0.79,7.92,2.37c2.56,1.58,4.37,3.58,5.43,5.99l-3.84,4.75
		c-3.92,0-6.86-0.75-8.82-2.26c-2.71,0.3-5.09,1.62-7.13,3.96c-2.04,2.34-3.58,5.01-4.64,8.03c-0.9,2.87-1.36,5.73-1.36,8.59
		c0,5.73,0.79,11.57,2.38,17.53c1.58,5.96,3.65,11.57,6.22,16.85l15.83,31.66c2.56,5.43,4.6,11.53,6.11,18.32
		c1.5,6.79,2.26,13.57,2.26,20.36c0,9.95-2.41,19.3-7.24,28.04c-2.57,4.52-5.88,8.11-9.95,10.74c-4.07,2.64-8.59,3.96-13.57,3.96
		C828.6,562.48,823.93,561.49,820.01,559.54z"/>
</g>
<g id="pawprint">
	<path id="paw_base" d="M415.96,870.18c20.54,17.23,57.23,8.25,86.99-19.48c29.76,27.74,66.45,36.71,86.99,19.48
		c23.33-19.58,16.97-65.57-14.2-102.72c-21.6-25.74-49.45-40.48-72.27-40.6c-0.17,0-0.34,0-0.52,0c-0.17,0-0.34,0-0.52,0
		c-22.83,0.12-50.67,14.86-72.27,40.6C398.98,804.61,392.63,850.6,415.96,870.18z"/>
	<ellipse transform="matrix(0.9571 -0.2897 0.2897 0.9571 -171.7528 161.419)" cx="459.33" cy="660.82" rx="36.31" ry="52.2"/>
	<ellipse transform="matrix(0.7071 -0.7071 0.7071 0.7071 -393.0577 478.7148)" cx="381.33" cy="713.82" rx="36.31" ry="52.2"/>
	<ellipse transform="matrix(0.2897 -0.9571 0.9571 0.2897 -240.1687 998.0089)" cx="552.33" cy="660.82" rx="52.2" ry="36.31"/>
	<ellipse transform="matrix(0.5736 -0.8192 0.8192 0.5736 -322.5261 822.0717)" cx="628.33" cy="720.82" rx="52.2" ry="36.31"/>
</g>
<circle id="border_x5F_inner" class="st0" cx="503" cy="500" r="460"/>
<circle id="border_x5F_outer" class="st1" cx="503" cy="500" r="474"/>
</svg>
