<?xml version="1.0" encoding="utf-8"?>
<!-- Generator: Adobe Illustrator 23.0.1, SVG Export Plug-In . SVG Version: 6.00 Build 0)  -->
<svg version="1.1" id="Logo" xmlns="http://www.w3.org/2000/svg" xmlns:xlink="http://www.w3.org/1999/xlink" x="0px" y="0px"
	 viewBox="0 0 1000 1000" style="enable-background:new 0 0 1000 1000;" xml:space="preserve">
<style type="text/css">
	.st0{fill:#FDDE04;}
	.st1{fill:none;stroke:#FCEE21;stroke-width:10;stroke-miterlimit:10;}
</style>
<g id="Chico_x27_s_Adventures">
	<path d="M103.4,482.96c-4.16-2.3-7.74-5.4-10.75-9.29c-2.65-3.72-5.04-8.45-7.17-14.2c-2.12-5.75-3.72-11.72-4.78-17.92
		c-2.12-10.44-3.54-24.15-4.25-41.14c-0.18-4.07-0.27-11.06-0.27-20.97v-16.72c0.17-4.78,0.27-9.73,0.27-14.86
		c0-10.44,0.62-18.67,1.86-24.68c-0.53-2.65-0.8-5.4-0.8-8.23c0-10.62,3.98-19.2,11.94-25.75c7.96-6.54,18.05-9.82,30.26-9.82
		c4.6,0,8.85,1.24,12.74,3.72c3.89,2.48,5.84,5.57,5.84,9.29c0,1.77-0.71,3.19-2.12,4.25c-1.42,1.06-3.19,1.59-5.31,1.59
		c-1.77,0-3.67-0.27-5.71-0.8c-2.04-0.53-3.32-1.33-3.85-2.39h-3.45v-0.53c-6.55,0-12.04,1.42-16.46,4.25
		c-3.19,2.3-5.67,6.1-7.43,11.41c-0.71,1.95-1.24,4.43-1.59,7.43c-0.36,3.01-0.53,5.75-0.53,8.23c-0.18,1.42-0.27,4.25-0.27,8.49
		l0.53,9.29l0.27,9.02c0,2.65-0.36,5.75-1.06,9.29c-0.89,4.43-1.33,7.52-1.33,9.29v6.37c0,6.9,0.27,16.37,0.8,28.4
		c0.17,10.09,1.33,20.17,3.45,30.26c1.59,9.38,4.6,17.34,9.02,23.89c4.25,6.73,10,10.09,17.25,10.09c3.01,0,6.72-1.59,11.15-4.78
		c4.78-3.19,8.14-4.78,10.09-4.78c2.48,0,5.04,1.33,7.7,3.98c0,6.55-2.48,11.59-7.43,15.13c-4.6,3.19-10.09,5.22-16.46,6.1
		c-3.54,0.35-6.37,0.53-8.49,0.53C112.11,486.41,107.55,485.25,103.4,482.96z"/>
	<path d="M207.84,438.36l0.27-15.13l0.27-12.21v-0.8v-2.65c0.17-1.41,0.27-3.09,0.27-5.04c0-0.35-0.27-0.8-0.8-1.33
		c-0.53-0.53-0.8-0.97-0.8-1.33v-0.27c-0.89,0.36-2.48,0.53-4.78,0.53c-2.3,0-5.13-0.35-8.49-1.06c-1.06-0.17-3.89-0.62-8.49-1.33
		v30.52c0,4.6,0.27,11.86,0.8,21.77c0.53,9.73,0.8,16.99,0.8,21.77c0,2.65-0.71,4.96-2.12,6.9c-1.42,1.95-3.28,2.92-5.57,2.92
		c-3.36,0-5.75-3.27-7.17-9.82c-1.42-6.72-2.12-15.48-2.12-26.28l0.53-21.5c0.17-6.01,0.27-12.38,0.27-19.11v-4.51v-3.72
		c0-2.83-0.09-4.69-0.27-5.57v-1.33l0.8-15.4c0-6.72-0.27-16.72-0.8-29.99c-0.53-13.27-0.8-23.27-0.8-29.99
		c0-2.12,0.71-3.98,2.12-5.57c1.41-1.59,3.19-2.39,5.31-2.39c5.66,0,8.49,5.31,8.49,15.93l-0.53,32.91
		c-0.36,9.91-0.53,20.97-0.53,33.18c2.65,0.89,7.43,1.33,14.33,1.33h9.82c0.35-1.06,0.53-2.12,0.53-3.19
		c0-8.49-0.53-21.06-1.59-37.69c-1.24-15.57-1.86-28.22-1.86-37.96c0-1.95,0.75-3.58,2.26-4.91c1.5-1.33,3.32-1.99,5.44-1.99
		c1.24,0,3.01,0.44,5.31,1.33l2.39,1.06c0,25.13,0.88,58.66,2.65,100.6l2.39,67.15c0,2.48-0.93,4.43-2.79,5.84
		c-1.86,1.42-4.03,2.12-6.5,2.12C210.85,482.16,207.84,467.56,207.84,438.36z"/>
	<path d="M248.18,473.93c0-4.25,2.74-6.37,8.23-6.37h2.92l2.65,0.27c1.41,0,2.39-0.44,2.92-1.33c0.53-0.88,0.8-2.48,0.8-4.78
		c0-3.01-0.18-7.7-0.53-14.07c-0.53-4.25-1.15-11.85-1.86-22.83c-1.59-27.07-2.39-47.51-2.39-61.31c0-4.95,0.09-9.46,0.27-13.54
		l0.27-13.54c0-5.84-0.27-10.7-0.8-14.6c-2.83,0.71-4.87,1.06-6.1,1.06c-4.25,0-6.37-2.12-6.37-6.37c0-2.12,1.33-3.98,3.98-5.57
		s6.01-2.74,10.09-3.45c7.08-1.41,13.36-2.12,18.85-2.12c2.12,0,3.94,0.75,5.44,2.26c1.5,1.51,2.26,3.23,2.26,5.18
		c0,1.95-0.58,3.63-1.73,5.04c-1.15,1.42-2.61,2.12-4.38,2.12c-1.06,0-1.95-0.09-2.65-0.27h-2.12c-1.77,0-3.05,0.4-3.85,1.19
		s-1.19,2.26-1.19,4.38c0,17.17,1.06,43,3.19,77.51c0.35,6.37,1.06,15.75,2.12,28.14c0.88,8.14,1.33,16.46,1.33,24.95v10.09
		c1.06-0.17,2.83-0.27,5.31-0.27c7.43,0,11.15,3.1,11.15,9.29v1.59l-6.64,4.51c-0.18,0-0.75,0.05-1.73,0.13
		c-0.97,0.09-2.79,0.13-5.44,0.13c-5.67,0.36-9.29,0.53-10.88,0.53C255.88,481.89,248.18,479.24,248.18,473.93z"/>
	<path d="M341.22,484.15c-4.34-1.15-7.66-2.43-9.95-3.85c-11.86-7.61-17.78-28.4-17.78-62.38v-7.17v-8.23v-6.37
		c0-7.08,0.09-13.4,0.27-18.98c0.17-5.57,0.53-11.63,1.06-18.18c0.53-6.9,1.33-12.52,2.39-16.85c1.06-4.33,2.83-9.24,5.31-14.73
		c2.12-5.13,4.73-9.11,7.83-11.94c3.09-2.83,7.12-5.22,12.08-7.17c4.42-1.94,9.91-2.92,16.46-2.92c2.65,0,4.69,0.62,6.1,1.86
		c1.41,1.24,2.12,2.83,2.12,4.78c0,1.77-0.58,3.36-1.73,4.78c-1.15,1.42-2.52,2.21-4.11,2.39h-12.48c-3.54,0-6.64,2.21-9.29,6.64
		c-2.65,4.42-4.51,10.18-5.57,17.25c-2.3,13.1-3.45,23.71-3.45,31.85v1.33l-0.53,25.48c-0.36,7.61-0.53,16.19-0.53,25.75
		c0,6.73,0.27,12.21,0.8,16.46c0.88,6.37,2.39,11.68,4.51,15.93c2.12,4.78,5.75,8.23,10.88,10.35c2.65,1.06,5.57,1.59,8.76,1.59
		c1.95,0,3.89-0.71,5.84-2.12c2.3,0,4.2,0.49,5.71,1.46c1.5,0.97,2.26,2.43,2.26,4.38c0,6.9-4.87,10.35-14.6,10.35
		C349.66,485.87,345.55,485.3,341.22,484.15z"/>
	<path d="M410.36,482.82c-3.89-2.92-7.08-6.86-9.56-11.81c-5.13-10.79-8.32-22.56-9.56-35.3c-1.59-12.03-2.39-23.62-2.39-34.77
		c0-2.12,0.09-3.89,0.27-5.31v-4.78c0-0.88-0.09-1.33-0.27-1.33v-4.78l0.27-18.58c0.17-5.66,0.88-14.69,2.12-27.07
		c0.88-8.49,2.92-16.72,6.1-24.68c1.24-3.54,2.83-6.24,4.78-8.1c1.95-1.86,4.16-2.79,6.64-2.79c7.08,0,13.45,1.29,19.11,3.85
		c5.66,2.57,10.44,6.15,14.33,10.75c3.54,4.43,6.54,9.87,9.02,16.32c2.48,6.46,4.25,13.32,5.31,20.57
		c1.06,7.43,1.59,15.31,1.59,23.62v2.12c0,5.49,0.09,10.44,0.27,14.86l0.27,15.13c0,50.96-11.86,76.44-35.57,76.44
		C418.5,487.2,414.25,485.74,410.36,482.82z M430.8,472.21c2.65-2.56,4.69-6.06,6.1-10.48c3.36-9.02,5.4-18.75,6.1-29.2
		c0.88-9.02,1.33-16.81,1.33-23.36c0-7.96-0.62-18.4-1.86-31.32c-1.06-13.62-1.59-23.8-1.59-30.52v-4.78
		c-0.36-6.72-2.61-12.56-6.77-17.52c-4.16-4.95-9.25-7.43-15.26-7.43c-6.02,0-10,3.45-11.94,10.35c-1.77,5.49-2.65,12.57-2.65,21.23
		c0,3.36,0.09,6.2,0.27,8.49v7.17l-0.53,12.21c-0.36,3.72-0.53,7.79-0.53,12.21c0,9.56,0.27,19.02,0.8,28.4
		c0.71,13.27,2.48,26.19,5.31,38.75c2.83,13.1,6.99,19.64,12.48,19.64C425.22,476.05,428.14,474.77,430.8,472.21z"/>
	<path d="M496.88,337.23c0-3.72,0.97-10.09,2.92-19.11c1.94-9.02,4.6-17.61,7.96-25.75c3.54-9.02,7.17-13.54,10.88-13.54
		c3.19,0,4.78,1.95,4.78,5.84c0,7.43-1.29,15.71-3.85,24.82c-2.57,9.12-5.8,16.85-9.69,23.23c-4.07,6.2-7.7,9.29-10.88,9.29
		C497.59,341.66,496.88,340.07,496.88,337.23z"/>
	<path d="M560.98,482.42c-2.21-1.77-3.5-4.07-3.85-6.9l2.92-4.51c1.06,0,2.74,0.36,5.04,1.06c2.65,0.53,4.69,0.8,6.11,0.8
		c3.18,0,6.06-1.41,8.63-4.25c2.56-2.83,4.47-6.54,5.71-11.15c2.3-8.49,3.45-16.1,3.45-22.83c0-11.68-3.72-23.98-11.15-36.89
		l-2.92-5.04c-3.36-5.84-6.2-11.06-8.49-15.66c-2.3-4.6-4.25-9.56-5.84-14.86c-2.12-6.9-3.19-13.8-3.19-20.7
		c0-7.78,1.77-15.93,5.31-24.42c1.77-4.07,4.29-7.39,7.56-9.95c3.27-2.56,6.94-3.85,11.02-3.85c3.18,0,6.15,1.02,8.89,3.05
		c2.74,2.04,4.11,4.47,4.11,7.3c0,1.59-0.62,2.83-1.86,3.72c-1.24,0.89-2.75,1.33-4.51,1.33c-1.95,0-3.81-0.53-5.57-1.59
		c-3.89,0.18-6.99,3.63-9.29,10.35c-1.95,6.2-2.92,11.33-2.92,15.4c0,5.13,0.8,10.31,2.39,15.53c1.59,5.22,3.62,9.95,6.1,14.2
		l5.84,10.62l9.29,17.52c2.48,4.96,4.47,10.71,5.97,17.25c1.5,6.55,2.26,13.18,2.26,19.91c0,10.8-2.48,21.06-7.43,30.79
		c-2.48,4.96-5.97,8.94-10.48,11.94c-4.51,3.01-9.51,4.51-15,4.51v0.8C565.89,485.34,563.19,484.19,560.98,482.42z"/>
	<path d="M126.75,727c-1.33-1.06-1.99-2.83-1.99-5.31v-34.77c-2.3-1.59-6.64-3.01-13.01-4.25c-6.37-1.24-12.39-2.03-18.05-2.39
		c-1.95,3.72-3.36,8.23-4.25,13.54l-1.06,5.31c-0.18,1.24-0.71,3.98-1.59,8.23c-0.89,4.25-1.86,7.92-2.92,11.02
		c-1.06,3.1-2.12,5.53-3.19,7.3c-6.73,0-10.62-1.77-11.68-5.31c1.95-2.83,4.16-11.15,6.64-24.95l8.76-48.57
		c3.89-23,7.47-42.64,10.75-58.93c3.27-16.28,6.77-29.9,10.48-40.88c4.07-12.21,7.96-18.31,11.68-18.31s6.54,0.71,8.49,2.12
		c0,7.08,1.68,24.15,5.04,51.23c3.54,26.54,5.31,44.68,5.31,54.41c0,9.38,0.97,22.83,2.92,40.34c1.77,17.88,2.65,32.12,2.65,42.73
		c0,6.02-2.92,9.02-8.76,9.02C130.16,728.59,128.08,728.06,126.75,727z M124.5,670.72c-0.53-7.79-1.42-17.43-2.65-28.93
		c-4.07-39.99-6.1-64.5-6.1-73.52v-2.12c-1.77,1.77-4.21,9.78-7.3,24.02c-3.1,14.25-5.97,29.51-8.63,45.79
		c-2.65,16.28-4.07,27.07-4.25,32.38c7.43,2.12,15.3,3.18,23.62,3.18C120.6,671.52,122.38,671.25,124.5,670.72z"/>
	<path d="M175.19,695.41l0.53-41.94c0.17-12.38,0.27-26.28,0.27-41.67c0-5.66-0.53-14.42-1.59-26.28
		c-0.89-12.91-1.33-20.79-1.33-23.62c0-2.3,0.97-4.33,2.92-6.1c1.94-1.77,4.07-2.65,6.37-2.65c6.19,0,12.16,1.37,17.92,4.11
		c5.75,2.75,10.84,6.59,15.26,11.55c9.38,10.79,15.57,22.65,18.58,35.57c1.59,6.55,2.39,13.01,2.39,19.38c0,2.3-0.09,4.43-0.27,6.37
		l-0.27,7.17v14.6c0,11.33-0.36,20.26-1.06,26.81c-1.06,8.85-3.1,16.72-6.1,23.62c-3.54,7.43-8.67,14.07-15.4,19.91
		c-3.19,2.65-7.26,5.31-12.21,7.96h-19.11C177.49,730.18,175.19,718.59,175.19,695.41z M203.59,713.86c3.01-1.86,5.57-4.38,7.7-7.56
		c1.77-2.83,3.41-6.41,4.91-10.75c1.5-4.33,2.61-8.54,3.32-12.61c1.59-7.96,2.56-16.1,2.92-24.42c0.17-2.12,0.27-5.22,0.27-9.29
		c0-53.44-10.35-81.31-31.06-83.61c-1.24,7.96-1.86,17.17-1.86,27.6c0,11.15,0.71,30.62,2.12,58.39c1.24,24.6,1.86,44.15,1.86,58.66
		v6.37C197.31,716.64,200.58,715.71,203.59,713.86z"/>
	<path d="M285.88,727.79c0-20.35-1.9-41.41-5.71-63.17c-3.81-21.76-9.78-48.39-17.92-79.89c-0.36-1.77-1.15-4.51-2.39-8.23
		c-3.19-9.91-4.78-16.19-4.78-18.85c0-1.59,0.66-3.01,1.99-4.25c1.33-1.24,2.79-1.86,4.38-1.86c2.65,0,5.13,2.21,7.43,6.64
		c2.3,4.25,4.42,9.95,6.37,17.12c1.94,7.17,4.07,16.06,6.37,26.68c2.12,10.09,4.69,25.57,7.7,46.45l1.59,10.35l3.19,23.62
		c0.71,6.55,1.33,11.24,1.86,14.07c3.72-19.46,8.49-47.6,14.33-84.41c4.78-31.5,8.14-52.99,10.09-64.5h5.84
		c1.59,0,3.01,0.58,4.25,1.73c1.24,1.15,1.86,2.52,1.86,4.11c0,6.37-0.75,13.23-2.26,20.57c-1.51,7.34-3.76,16.15-6.77,26.41
		c-2.48,8.85-4.11,15.49-4.91,19.91c-0.8,4.42-1.55,11.41-2.26,20.97c-1.42,21.41-3.63,40.61-6.64,57.6
		c-1.95,10.26-4.51,18.32-7.7,24.15c-3.19,5.84-6.81,8.76-10.88,8.76L285.88,727.79z"/>
	<path d="M364.84,729.65c-1.86-1.59-2.88-3.54-3.05-5.84v-6.9v-5.31c-0.18-1.59-0.27-3.45-0.27-5.57c0-3.72-0.27-9.38-0.8-16.99
		l-0.53-16.99c0-8.67,0.27-21.59,0.8-38.75c0.71-15.39,1.06-28.31,1.06-38.75c0-2.48-0.27-6.19-0.8-11.15
		c-0.53-5.13-0.8-8.85-0.8-11.15c0-12.56,3.72-18.84,11.15-18.84c5.84,0,12.61,1.15,20.31,3.45c7.7,2.3,11.55,5.04,11.55,8.23
		c0,1.77-0.75,3.41-2.26,4.91c-1.51,1.51-3.32,2.7-5.44,3.58c-7.43-2.65-14.16-4.42-20.17-5.31c0.17,2.65,0.27,6.46,0.27,11.41
		c0,7.08-0.09,13.45-0.27,19.11c-0.53,8.49-0.8,14.86-0.8,19.11l0.8,4.25l4.25-0.27c1.41-0.17,3.19-0.27,5.31-0.27
		c8.49,0,12.74,2.48,12.74,7.43c0,1.95-0.8,3.58-2.39,4.91s-3.63,1.99-6.1,1.99c-3.19,0-5.67-0.17-7.43-0.53h-6.64
		c0.35,4.6,0.53,11.33,0.53,20.17c0,8.85-0.09,16.81-0.27,23.89c-0.53,10.8-0.8,18.85-0.8,24.15c0,9.91,0.17,14.86,0.53,14.86
		l8.76-0.27c3.01-0.17,6.64-0.27,10.88-0.27c6.72,0,10.09,2.12,10.09,6.37c0,2.48-1.11,4.38-3.32,5.71
		c-2.21,1.33-4.91,1.99-8.1,1.99h-22.56C368.77,732.04,366.7,731.24,364.84,729.65z"/>
	<path d="M501.93,727.66c-1.06-1.15-1.86-3.14-2.39-5.97l-1.59-5.04v-0.53v-0.8c0-5.84-6.06-25.75-18.18-59.72
		c-12.12-33.97-21.63-59.1-28.53-75.38v133.51l1.06,1.86c0.17,0.36,0.53,0.97,1.06,1.86c0.53,0.89,0.8,1.77,0.8,2.65
		c0,2.3-0.8,4.25-2.39,5.84s-3.54,2.39-5.84,2.39c-5.67,0-8.49-5.4-8.49-16.19l-0.27-45.39c-0.18-13.62-0.27-28.84-0.27-45.65
		c0-5.66,0.27-13.89,0.8-24.68c0.53-11.15,0.8-19.38,0.8-24.68c0-8.32,3.19-14.86,9.56-19.64v1.59c1.06-0.35,1.77-0.53,2.12-0.53
		c4.07,0,9.2,7.08,15.4,21.23c4.95,11.33,9.42,23.27,13.4,35.83c3.98,12.57,9.24,30.44,15.79,53.62l2.65,9.56
		c4.07,14.33,7.17,24.6,9.29,30.79c3.54-38.04,5.31-82.99,5.31-134.84v-3.45c-0.18-1.06-0.27-2.21-0.27-3.45
		c0-5.31,2.12-7.96,6.37-7.96c2.48,0,4.38,0.97,5.71,2.92c1.33,1.95,1.99,4.42,1.99,7.43v19.91c-0.36,27.25-1.42,56.8-3.18,88.65
		c-1.77,31.85-3.89,49.81-6.37,53.88c-5.13,1.41-8.32,2.12-9.55,2.12C504.59,729.38,502.99,728.81,501.93,727.66z"/>
	<path d="M576.25,724.34l-0.27-10.35c-0.18-3.01-0.27-6.37-0.27-10.09l0.27-9.02c-0.53-1.95-1.86-21.32-3.98-58.13
		c-2.12-36.8-3.36-60.43-3.72-70.87c-10.26-0.35-16.81-1.41-19.64-3.18c-1.95-1.42-2.92-3.01-2.92-4.78c0-1.41,0.93-2.7,2.79-3.85
		c1.86-1.15,3.76-1.73,5.71-1.73c4.95,0,10.97,0.36,18.05,1.06c6.72,0.89,12.74,1.33,18.05,1.33h2.12h2.12
		c5.48,0,8.23,2.12,8.23,6.37c0,2.12-0.89,3.85-2.65,5.18c-1.77,1.33-3.81,1.99-6.1,1.99c-1.59,0-3.89-0.27-6.9-0.8l-5.31-1.06
		l-0.27,1.33l-0.26,1.33c0,15.75,1.5,40.88,4.51,75.38c2.83,32.38,4.25,57.51,4.25,75.38c0,2.12-0.93,3.98-2.79,5.57
		c-1.86,1.59-3.94,2.39-6.24,2.39L576.25,724.34z"/>
	<path d="M646.32,729.78c-3.36-1.86-6.1-4.55-8.23-8.1c-4.25-7.43-6.99-15.83-8.23-25.22c-1.24-8.14-1.86-17.87-1.86-29.2
		c-0.53-19.11-0.8-42.47-0.8-70.07l-0.26-20.44c-0.18-1.06-0.27-2.83-0.27-5.31c-0.36-6.72-0.53-10.79-0.53-12.21
		c1.59-3.72,3.45-5.57,5.57-5.57s4.02,1.59,5.71,4.78c1.68,3.18,2.52,6.64,2.52,10.35V641c0,7.08,0.62,16.46,1.86,28.14
		c1.24,14.51,1.86,23.89,1.86,28.14c0,13.1,5.57,19.64,16.72,19.64c12.74,0,19.11-47.6,19.11-142.8v-14.86v-2.39
		c-0.18-0.53-0.27-1.24-0.27-2.12c0-2.12,0.49-3.67,1.46-4.65c0.97-0.97,2.87-1.46,5.71-1.46c2.3,0,4.11,0.66,5.44,1.99
		s2.17,2.88,2.52,4.64c0.17,1.06,0.26,3.1,0.26,6.1c0,2.83-0.26,7.35-0.8,13.54c-0.71,5.13-1.06,9.56-1.06,13.27
		c0,4.07-0.18,7.7-0.53,10.88l-0.53,11.15v2.12c0.17,0.71,0.26,1.51,0.26,2.39c0,78.57-11.41,117.85-34.24,117.85
		C653.49,732.57,649.68,731.64,646.32,729.78z"/>
	<path d="M760.98,720.36c-3.72-9.2-6.46-18.67-8.23-28.4l-1.86-9.02c-5.13-25.3-8.41-39.72-9.82-43.27h-3.19
		c0,5.13-0.09,9.82-0.27,14.07v14.6c0,23.71,1.68,42.2,5.04,55.47l-2.92,7.17h-7.43l-3.45-3.98l0.27-17.78
		c0-15.93-0.8-40.08-2.39-72.46c-1.42-34.5-2.12-58.66-2.12-72.46c0-8.49,2.92-12.74,8.76-12.74c9.55,0,17.38,2.48,23.49,7.43
		c6.1,4.96,9.16,11.86,9.16,20.7v18.58c0,2.65-0.44,5.71-1.33,9.16c-0.89,3.45-1.86,6.24-2.92,8.36l-5.04,9.56l-4.25,7.96l1.33,6.37
		l3.72,18.85c2.48,13.63,4.87,24.68,7.17,33.18c2.3,8.49,5.13,16.19,8.49,23.09l1.59,3.19c1.77,3.54,2.65,6.37,2.65,8.49
		c0,1.77-0.53,3.32-1.59,4.64c-1.06,1.33-2.48,1.99-4.25,1.99C767.71,733.1,764.17,728.85,760.98,720.36z M748.91,610.6
		c2.74-8.76,4.11-16.85,4.11-24.29c0-5.66-0.71-10.97-2.12-15.93c-0.89-2.83-2.35-5-4.38-6.5c-2.04-1.5-4.56-2.26-7.57-2.26
		l-0.53,1.33l-0.53,2.39l0.53,31.32c0.35,9.2,0.53,19.2,0.53,29.99C742.84,624.72,746.16,619.36,748.91,610.6z"/>
	<path d="M809.42,729.65c-1.86-1.59-2.88-3.54-3.05-5.84v-6.9v-5.31c-0.18-1.59-0.27-3.45-0.27-5.57c0-3.72-0.27-9.38-0.8-16.99
		l-0.53-16.99c0-8.67,0.27-21.59,0.8-38.75c0.71-15.39,1.06-28.31,1.06-38.75c0-2.48-0.26-6.19-0.8-11.15
		c-0.53-5.13-0.8-8.85-0.8-11.15c0-12.56,3.72-18.84,11.15-18.84c5.84,0,12.61,1.15,20.31,3.45c7.7,2.3,11.55,5.04,11.55,8.23
		c0,1.77-0.75,3.41-2.26,4.91c-1.51,1.51-3.32,2.7-5.44,3.58c-7.43-2.65-14.16-4.42-20.17-5.31c0.17,2.65,0.27,6.46,0.27,11.41
		c0,7.08-0.09,13.45-0.27,19.11c-0.53,8.49-0.8,14.86-0.8,19.11l0.8,4.25l4.25-0.27c1.41-0.17,3.18-0.27,5.31-0.27
		c8.49,0,12.74,2.48,12.74,7.43c0,1.95-0.8,3.58-2.39,4.91s-3.63,1.99-6.1,1.99c-3.19,0-5.67-0.17-7.43-0.53h-6.64
		c0.35,4.6,0.53,11.33,0.53,20.17c0,8.85-0.09,16.81-0.27,23.89c-0.53,10.8-0.8,18.85-0.8,24.15c0,9.91,0.17,14.86,0.53,14.86
		l8.76-0.27c3.01-0.17,6.64-0.27,10.88-0.27c6.72,0,10.09,2.12,10.09,6.37c0,2.48-1.11,4.38-3.32,5.71
		c-2.21,1.33-4.91,1.99-8.1,1.99h-22.56C813.36,732.04,811.28,731.24,809.42,729.65z"/>
	<path d="M875.51,728.85c-2.21-1.77-3.5-4.07-3.85-6.9l2.92-4.51c1.06,0,2.74,0.36,5.04,1.06c2.65,0.53,4.69,0.8,6.11,0.8
		c3.18,0,6.06-1.41,8.63-4.25c2.56-2.83,4.47-6.54,5.71-11.15c2.3-8.49,3.45-16.1,3.45-22.83c0-11.68-3.72-23.98-11.15-36.89
		l-2.92-5.04c-3.36-5.84-6.2-11.06-8.49-15.66c-2.3-4.6-4.25-9.56-5.84-14.86c-2.12-6.9-3.19-13.8-3.19-20.7
		c0-7.78,1.77-15.93,5.31-24.42c1.77-4.07,4.29-7.39,7.56-9.95c3.27-2.56,6.94-3.85,11.02-3.85c3.18,0,6.15,1.02,8.89,3.05
		c2.74,2.04,4.11,4.47,4.11,7.3c0,1.59-0.62,2.83-1.86,3.72c-1.24,0.89-2.75,1.33-4.51,1.33c-1.95,0-3.81-0.53-5.57-1.59
		c-3.89,0.18-6.99,3.63-9.29,10.35c-1.95,6.2-2.92,11.33-2.92,15.39c0,5.13,0.8,10.31,2.39,15.53c1.59,5.22,3.62,9.95,6.1,14.2
		l5.84,10.62l9.29,17.52c2.48,4.96,4.47,10.71,5.97,17.25c1.5,6.55,2.26,13.18,2.26,19.91c0,10.79-2.48,21.06-7.43,30.79
		c-2.48,4.96-5.97,8.94-10.48,11.94c-4.51,3.01-9.51,4.51-15,4.51v0.8C880.42,731.77,877.72,730.62,875.51,728.85z"/>
</g>
<g id="pawprint">
	<path id="paw_base" class="st0" d="M734.88,479.6c16.43,13.79,45.78,6.6,69.59-15.58c23.8,22.19,53.16,29.37,69.59,15.58
		c18.66-15.66,13.58-52.45-11.36-82.17c-17.28-20.59-39.56-32.38-57.82-32.48c-0.14,0-0.27,0-0.41,0c-0.14,0-0.28,0-0.41,0
		c-18.26,0.09-40.54,11.88-57.82,32.48C721.3,427.15,716.22,463.94,734.88,479.6z"/>
	
		<ellipse transform="matrix(0.9571 -0.2897 0.2897 0.9571 -57.4224 236.3489)" class="st0" cx="769.58" cy="312.12" rx="29.05" ry="41.76"/>
	
		<ellipse transform="matrix(0.7071 -0.7071 0.7071 0.7071 -43.5562 603.8899)" class="st0" cx="707.18" cy="354.52" rx="29.05" ry="41.76"/>
	
		<ellipse transform="matrix(0.2897 -0.9571 0.9571 0.2897 300.7213 1029.4734)" class="st0" cx="843.98" cy="312.12" rx="41.76" ry="29.05"/>
	
		<ellipse transform="matrix(0.5736 -0.8192 0.8192 0.5736 90.8212 894.7095)" class="st0" cx="904.77" cy="360.12" rx="41.76" ry="29.05"/>
</g>
<line id="underline" class="st1" x1="41" y1="780" x2="947" y2="780"/>
</svg>
