<?xml version="1.0" encoding="utf-8"?>
<!-- Generator: Adobe Illustrator 23.0.1, SVG Export Plug-In . SVG Version: 6.00 Build 0)  -->
<svg version="1.1" id="Logo" xmlns="http://www.w3.org/2000/svg" xmlns:xlink="http://www.w3.org/1999/xlink" x="0px" y="0px"
	 viewBox="0 0 1000 1000" style="enable-background:new 0 0 1000 1000;" xml:space="preserve">
<style type="text/css">
	.st0{fill:#FF005B;}
</style>
<g id="pawprint">
	<path id="paw_base" class="st0" d="M721.65,621.75c18.43,15.47,51.37,7.41,78.08-17.49c26.71,24.89,59.64,32.95,78.08,17.49
		c20.94-17.57,15.24-58.85-12.74-92.2c-19.39-23.11-44.38-36.34-64.87-36.44c-0.15,0-0.31,0-0.46,0c-0.15,0-0.31,0-0.46,0
		c-20.49,0.1-45.48,13.33-64.87,36.44C706.41,562.9,700.71,604.17,721.65,621.75z"/>
	
		<ellipse transform="matrix(0.9571 -0.2897 0.2897 0.9571 -93.0701 238.9617)" class="st0" cx="760.58" cy="433.83" rx="32.59" ry="46.85"/>
	
		<ellipse transform="matrix(0.7071 -0.7071 0.7071 0.7071 -138.1411 629.3068)" class="st0" cx="690.57" cy="481.4" rx="32.59" ry="46.85"/>
	
		<ellipse transform="matrix(0.2897 -0.9571 0.9571 0.2897 184.2866 1115.9957)" class="st0" cx="844.05" cy="433.83" rx="46.85" ry="32.59"/>
	
		<ellipse transform="matrix(0.5736 -0.8192 0.8192 0.5736 -10.4783 955.246)" class="st0" cx="912.27" cy="487.69" rx="46.85" ry="32.59"/>
</g>
<g id="chico_x27_s_adventures">
	<path d="M135.3,400.98c8.09,0,17.03,1.57,26.82,4.71c2.17,1.69,3.26,3.53,3.26,5.53c0,1.99-1,3.75-2.99,5.26
		c-1.99,1.51-4.26,2.27-6.8,2.27c-6.52-1.69-12.63-2.54-18.3-2.54c-13.05,0-22.96,3.87-29.72,11.6
		c-6.77,7.73-10.15,19.21-10.15,34.43s3.99,27.12,11.96,35.7c4.11,4.47,9,6.71,14.68,6.71c5.68,0,14.74-3.02,27.18-9.06
		c4.35-2.05,7.25-3.08,8.7-3.08c3.14,0,4.71,1.63,4.71,4.89s-1.51,5.98-4.53,8.16c-10.39,5.44-18.48,9.09-24.28,10.96
		c-5.8,1.88-10.81,2.81-15.04,2.81c-8.7,0-16.13-3.2-22.29-9.6c-11-11.84-16.49-28-16.49-48.48c0-20.48,5.22-35.64,15.68-45.49
		C108.15,405.91,120.68,400.98,135.3,400.98z"/>
	<path d="M197.64,450.1c9.42,1.57,18.06,2.36,25.92,2.36c7.85,0,12.87-0.06,15.04-0.18c-0.24-9.18-0.36-18-0.36-26.46
		c0-8.46,0-14.19,0-17.22c0-3.02,0.12-4.92,0.36-5.71c0.24-0.78,1.02-1.54,2.36-2.27c1.33-0.72,3.26-1.09,5.8-1.09
		c3.62,0,5.44,2.17,5.44,6.52v64.15c0,13.29-0.3,27.91-0.91,43.86c-0.12,3.5-3.08,5.25-8.88,5.25c-2.9,0-4.35-1.75-4.35-5.25
		l0.73-48.02c-3.87,0.24-9.15,0.36-15.86,0.36c-6.71,0-15.13-0.72-25.28-2.17c0,15.95,0.73,32.62,2.17,50.02
		c0.12,1.93-0.73,3.42-2.54,4.44c-1.81,1.03-4.08,1.54-6.8,1.54s-4.2-1.39-4.44-4.17c-1.57-17.15-2.36-34.07-2.36-50.74l1.09-56.54
		c0-2.42,0.91-4.2,2.72-5.35c1.81-1.15,3.74-1.72,5.8-1.72c3.38,0,5.07,1.63,5.07,4.89L197.64,450.1z"/>
	<path d="M276.56,404.25c1.87-1.21,4.02-1.81,6.43-1.81c2.42,0,3.92,1.39,4.53,4.17c0.12,14.02,0.36,34.98,0.73,62.88
		c0,17.04-0.48,31.47-1.45,43.31c-0.24,1.81-1.36,3.42-3.35,4.8c-1.99,1.39-4.02,2.08-6.07,2.08c-3.38,0-5.07-1.75-5.07-5.26
		c1.21-12.08,1.81-27.06,1.81-44.94l-1.09-60.89C273.51,406.9,274.69,405.46,276.56,404.25z"/>
	<path d="M362,400.98c8.09,0,17.03,1.57,26.82,4.71c2.17,1.69,3.26,3.53,3.26,5.53c0,1.99-1,3.75-2.99,5.26
		c-1.99,1.51-4.26,2.27-6.8,2.27c-6.52-1.69-12.63-2.54-18.3-2.54c-13.05,0-22.96,3.87-29.72,11.6
		c-6.77,7.73-10.15,19.21-10.15,34.43s3.99,27.12,11.96,35.7c4.11,4.47,9,6.71,14.68,6.71c5.68,0,14.74-3.02,27.18-9.06
		c4.35-2.05,7.25-3.08,8.7-3.08c3.14,0,4.71,1.63,4.71,4.89s-1.51,5.98-4.53,8.16c-10.39,5.44-18.48,9.09-24.28,10.96
		c-5.8,1.88-10.81,2.81-15.04,2.81c-8.7,0-16.13-3.2-22.29-9.6c-11-11.84-16.49-28-16.49-48.48c0-20.48,5.22-35.64,15.68-45.49
		C334.85,405.91,347.38,400.98,362,400.98z"/>
	<path d="M455.87,398.99c8.46,0,15.64,2.72,21.57,8.15c11.6,10.39,17.4,26.79,17.4,49.2c0,22.41-6.4,40.02-19.21,52.83
		c-6.65,6.41-14.32,9.91-23.02,10.51c-11.48,0-20.42-3.92-26.82-11.78c-6.4-7.85-10.96-16.64-13.68-26.37
		c-2.72-9.72-4.08-19.12-4.08-28.18c0-15.46,3.68-28.21,11.05-38.24C426.82,404.37,439.08,398.99,455.87,398.99z M454.61,414.03
		c-16.19,0-26.28,7.67-30.26,23.02c-1.21,4.11-1.81,9.36-1.81,15.77c0,6.4,1.21,13.84,3.62,22.29c3.26,11.36,8.09,19.33,14.5,23.92
		c3.74,2.9,8.27,4.35,13.59,4.35c5.31,0,10.09-2.38,14.32-7.16c4.23-4.77,7.13-10.84,8.7-18.21c1.57-7.37,2.36-14.8,2.36-22.29
		c0-13.29-1.9-23.56-5.71-30.81C470.1,417.66,463.67,414.03,454.61,414.03z"/>
	<path d="M517.4,383.41c1.27-1.09,2.72-1.63,4.35-1.63s3.14,0.57,4.53,1.72c1.39,1.15,2.08,2.69,2.08,4.62
		c0,6.65-1.21,13.05-3.62,19.21c-2.42,6.16-5.62,9.24-9.61,9.24s-5.98-2.05-5.98-6.16c0-1.69,1.06-4.71,3.17-9.06
		c2.11-4.35,3.17-8.94,3.17-13.77C515.5,385.88,516.13,384.49,517.4,383.41z"/>
	<path d="M589.25,399.53c7.85,0,14.53,1.33,20.03,3.99c5.5,2.66,8.25,6.04,8.25,10.15c0,1.81-0.45,3.38-1.36,4.71
		c-0.91,1.33-2.24,1.99-3.99,1.99c-1.75,0-5.53-1.36-11.33-4.08s-11.09-4.08-15.86-4.08c-4.77,0-9.7,1.51-14.77,4.53
		c-5.07,3.02-7.61,6.71-7.61,11.05c0,5.92,3.08,10.27,9.24,13.05c4.59,2.06,11.17,3.9,19.75,5.53c8.58,1.63,15.58,4.96,21.02,9.97
		c5.44,5.01,8.16,12.59,8.16,22.74c0,15.47-4.65,26.88-13.95,34.25c-5.2,4.11-12.54,6.16-22.02,6.16c-9.49,0-18.94-2.6-28.36-7.79
		c-6.16-3.26-9.24-6.52-9.24-9.79c0-1.21,0.51-2.54,1.54-3.99c1.02-1.45,2.45-2.66,4.26-3.63c1.81-0.96,3.47-1.12,4.98-0.45
		c1.51,0.67,3.96,1.84,7.34,3.53c3.38,1.69,5.86,2.84,7.43,3.44c5.07,1.93,9.85,2.9,14.32,2.9c4.47,0,8.79-2.2,12.96-6.61
		c4.17-4.41,6.25-9.81,6.25-16.22c0-8.46-4.23-14.38-12.69-17.76c-4.11-1.69-8.76-2.96-13.95-3.81c-10.75-1.93-18.85-5.17-24.28-9.7
		c-5.44-4.53-8.16-11.39-8.16-20.57c0-9.18,3.92-16.4,11.78-21.66C566.84,402.16,576.93,399.53,589.25,399.53z"/>
	<path d="M103.75,558.13c1.89,0,3.47,0.83,4.76,2.49c1.28,1.66,2.94,5.1,4.98,10.31c4.76,12.31,9.4,31.6,13.93,57.88
		c0.07,0.3,0.11,0.74,0.11,1.3s-0.36,1.17-1.08,1.81c-0.72,0.64-1.74,0.96-3.06,0.96c-1.32,0-2.44-0.32-3.34-0.96
		c-0.91-0.64-1.51-1.7-1.81-3.17c-0.3-1.47-0.87-4.36-1.7-8.67c-1.81-9.59-3.02-14.57-3.62-14.95c-0.91-0.53-3.91-1.09-9-1.7
		c-5.1-0.6-8.48-0.91-10.14-0.91c-1.66,0-2.64,0.15-2.94,0.45c-1.36,1.21-3.21,10.38-5.55,27.52c-0.3,1.44-1.74,2.15-4.3,2.15
		c-2.57,0-3.85-1.09-3.85-3.28c0-5.44,2-15.82,6-31.15c4-15.33,7.32-25.48,9.97-30.47C96.42,561.34,99.97,558.13,103.75,558.13z
		 M103.29,570.7c-1.13,0-3.1,3.34-5.89,10.02c-2.79,6.68-4.19,10.82-4.19,12.4c0,0.38,0.07,0.64,0.23,0.79
		c0.6,0.61,2.98,1.13,7.14,1.59c4.15,0.45,6.91,0.68,8.27,0.68c1.36,0,2.11-0.09,2.27-0.28c0.15-0.19,0.23-0.79,0.23-1.81
		s-1.02-5.17-3.06-12.46C106.24,574.34,104.58,570.7,103.29,570.7z"/>
	<path d="M136.36,629.14c-1.13-0.83-1.7-1.76-1.7-2.78s0.41-1.87,1.25-2.55c-1.44-10.8-2.15-23.18-2.15-37.15
		c0-4.23,0.19-12.46,0.57-24.69c0.38-1.13,1.15-2.11,2.32-2.95c1.17-0.83,2.28-1.25,3.34-1.25c1.06,0,1.7,0.04,1.93,0.11
		c10.8,3.02,20.2,8.85,28.2,17.5c8,8.65,12.19,19.01,12.57,31.09c0,13.29-5.51,21.63-16.54,25.03c-3.17,0.98-6.51,1.47-10.02,1.47
		s-6.59-0.26-9.23-0.79c0.3,0.6,0.45,1.42,0.45,2.44s-0.62,2-1.87,2.94c-1.25,0.94-2.72,1.42-4.42,1.42c-1.7,0-2.78-1.02-3.23-3.06
		L136.36,629.14z M143.16,585.76c0,13.21,0.75,25.75,2.27,37.6c1.81,0.53,4.87,0.79,9.17,0.79c4.3,0,8.44-0.72,12.4-2.15
		c3.96-1.43,6.06-3.55,6.29-6.34c0.23-2.11,0.34-3.74,0.34-4.87c0-9.81-2.63-18.5-7.87-26.05c-5.25-7.55-12.59-13.29-22.03-17.22
		C143.35,576.44,143.16,582.52,143.16,585.76z"/>
	<path d="M216.89,630.62c-3.1-9.13-6.31-17.5-9.63-25.09c-3.32-7.59-7.59-17.12-12.8-28.6c-1.81-4-2.94-6.47-3.4-7.42
		c-0.45-0.94-0.68-2-0.68-3.17c0-1.17,0.58-2.32,1.76-3.45c1.17-1.13,2.47-1.7,3.91-1.7c1.43,0,2.64,0.72,3.62,2.15l5.44,12.46
		c7.63,17.59,13.06,30.39,16.31,38.4l2.04-7.93c1.66-6.95,3.4-13.82,5.21-20.61c5.13-18.58,10.19-27.86,15.18-27.86
		c0.91,0,1.68,0.27,2.32,0.79c0.64,0.53,0.96,1.25,0.96,2.15s-0.47,2.23-1.42,3.96c-0.95,1.74-2.13,4.87-3.57,9.4
		c-1.44,4.53-2.32,7.19-2.66,7.99s-2.15,7.16-5.44,19.08c-3.28,11.93-6.1,21.29-8.44,28.09c-0.38,1.21-1.1,2.21-2.15,3
		c-1.06,0.79-2.25,1.19-3.57,1.19C218.57,633.45,217.57,632.5,216.89,630.62z"/>
	<path d="M253.36,593.81c-1.06-0.68-1.59-1.66-1.59-2.95c0-1.28,0.41-2.45,1.25-3.51c-0.3-7.55-0.45-15.52-0.45-23.9
		c0.45-1.81,1.15-3.13,2.1-3.96c0.94-0.83,2.32-1.36,4.13-1.59c9.97,0.45,20.76,0.68,32.39,0.68c2.87,0.61,4.3,1.85,4.3,3.74
		c0,3.17-3.1,5.02-9.29,5.55c-1.66,0.08-3.47,0.11-5.44,0.11h-7.36c-1.44,0-5.4-0.3-11.89-0.91c0,9.44,0.15,15.93,0.45,19.48
		c4,0.08,11.7,0.11,23.11,0.11c2.72,0.53,4.08,1.76,4.08,3.68c0,1.93-1.1,3.42-3.28,4.47c-0.23,0.15-0.64,0.3-1.25,0.45l-19.59-0.34
		c-1.21,0-2.19,0.08-2.95,0.23l0.45,19.48c0,4.38-0.11,7.51-0.34,9.4l26.28-0.34c2.42,0.38,3.62,1.4,3.62,3.06
		c0,1.13-0.51,2.27-1.53,3.4c-1.02,1.13-2.21,1.85-3.57,2.15l-29,0.45c-1.74,0-2.94-0.32-3.62-0.96c-0.68-0.64-1.02-1.72-1.02-3.23
		c0.3-2.11,0.45-5.51,0.45-10.19v-7.93L253.36,593.81z"/>
	<path d="M348.05,557.79c1.21,0,2.3,0.51,3.28,1.53c0.98,1.02,1.47,2.21,1.47,3.57c0,29.52,0.13,47.36,0.4,53.52
		c0.26,6.15,0.4,9.31,0.4,9.46c0,1.66-0.45,3.23-1.36,4.7c-0.91,1.47-1.91,2.21-3,2.21c-1.1,0-1.93-0.06-2.49-0.17
		s-1.08-0.24-1.53-0.4c-0.45-0.15-0.91-0.45-1.36-0.91l-1.13-1.13c-0.3-0.3-0.7-0.89-1.19-1.75c-0.49-0.87-0.89-1.57-1.19-2.1
		c-0.3-0.53-0.78-1.45-1.42-2.78c-0.64-1.32-2.04-4.02-4.19-8.1c-2.15-4.08-4.1-7.74-5.83-10.99
		c-5.97-10.95-11.52-19.59-16.65-25.94c0,24.54-0.68,41.57-2.04,51.08c-0.23,1.81-1.62,2.72-4.19,2.72c-1.21,0-2.21-0.3-3-0.91
		c-0.79-0.6-1.19-1.59-1.19-2.94c0-1.36,0.28-8.83,0.85-22.43s0.85-22.07,0.85-25.43c0-3.36,0-5.49,0-6.4c0-5.44,0.41-8.5,1.25-9.17
		c0.83-0.68,1.7-1.02,2.6-1.02c4.15,0,10.49,6.79,19.03,20.39c1.66,2.64,4.83,8.17,9.51,16.59c4.68,8.42,7.48,13.61,8.38,15.57
		l-1.36-47c0-6.49,0.72-10.19,2.15-11.1C345.86,558.01,346.84,557.79,348.05,557.79z"/>
	<path d="M362.44,559.26l45.87-0.68c2.19,0.68,3.28,1.78,3.28,3.29c0,3.78-1.55,5.66-4.64,5.66c-5.66,0-11.67,0.15-18.01,0.45
		c-0.38,6.5-0.57,11.38-0.57,14.67c0,3.28,0,5.38,0,6.29l0.45,39.76c0,2.34-0.6,3.7-1.81,4.08c-0.91,0.3-2.04,0.45-3.4,0.45
		c-2.19,0-3.4-1.25-3.62-3.74c-0.45-5.81-0.68-16.67-0.68-32.56c0-15.89,0.23-25.46,0.68-28.71c-1.59,0.08-3.93,0.11-7.02,0.11
		c-3.1,0-6.95-0.04-11.55-0.11c-1.21,0-2.15-0.38-2.83-1.13c-0.68-0.75-1.02-1.68-1.02-2.78c0-1.09,0.47-2.17,1.42-3.23
		C359.93,560.02,361.08,559.41,362.44,559.26z"/>
	<path d="M459.5,559.15c1.06-1.21,2.23-1.81,3.51-1.81c1.28,0,2.38,0.64,3.28,1.92c1.28,6.57,1.93,13.93,1.93,22.09v8.61
		c0,6.49-0.11,10.33-0.34,11.5c-0.23,1.17-0.45,2.47-0.68,3.91c-0.23,1.44-0.44,2.53-0.62,3.29c-0.19,0.76-0.47,1.77-0.85,3.06
		c-0.83,2.79-2,5.29-3.51,7.48c-2.27,4.23-5.25,7.55-8.95,9.97c-3.7,2.42-7.46,3.62-11.27,3.62c-3.81,0-7.74-1.66-11.78-4.98
		c-4.04-3.32-7.34-7.48-9.91-12.46c-3.93-7.7-5.89-16.57-5.89-26.62c0-3.55,0.53-11.97,1.59-25.26c0.53-1.21,1.34-2.28,2.44-3.23
		c1.09-0.94,2.21-1.42,3.34-1.42c1.66,0,2.68,1.13,3.06,3.4c-1.06,13.06-1.59,21.33-1.59,24.8c0,8.31,1.62,15.67,4.87,22.09
		c2.04,4.23,4.55,7.76,7.53,10.59c2.98,2.83,5.91,4.25,8.78,4.25c4.76,0,8.83-3.7,12.23-11.1c1.43-2.57,2.23-6.68,2.38-12.35
		c0-1.51,0.07-2.57,0.23-3.17l0.23-14.95c0-6.95-0.53-13.29-1.59-19.03C457.92,561.75,458.44,560.36,459.5,559.15z"/>
	<path d="M484.42,631.58c-1.21,1.1-2.51,1.64-3.91,1.64c-1.4,0-2.36-0.91-2.89-2.72c-0.23-9.97-0.34-19.9-0.34-29.79l-0.34-28.54
		c0-5.74,2.53-9.66,7.59-11.78c4.08-1.89,8.91-2.83,14.5-2.83c2.87,0,5.95,0.7,9.23,2.09c3.28,1.4,6.23,3.44,8.83,6.12
		c2.61,2.68,3.91,5.59,3.91,8.72c0,3.13-1.44,6.5-4.3,10.08c-2.87,3.59-6.42,6.76-10.65,9.51c-4.23,2.76-8.34,4.81-12.35,6.17
		c7.02,4.91,13.14,10.18,18.35,15.8c5.21,5.63,7.82,9.99,7.82,13.08c0,0.98-0.49,1.91-1.47,2.77c-0.98,0.87-2.17,1.3-3.57,1.3
		c-1.4,0-2.59-0.6-3.57-1.81c-1.66-4-4.81-8.21-9.46-12.63c-4.64-4.42-10.06-8.63-16.25-12.63l0.68,21.75
		C486.23,629.26,485.63,630.49,484.42,631.58z M502.82,587.58c6.3-4,9.46-7.61,9.46-10.82c0-3.21-1.59-5.68-4.76-7.42
		c-3.17-1.74-6.93-2.61-11.27-2.61c-4.34,0-7.8,0.53-10.36,1.59c-0.08,3.85-0.11,12.38-0.11,25.6
		C490.84,593.69,496.52,591.58,502.82,587.58z"/>
	<path d="M530.4,593.81c-1.06-0.68-1.59-1.66-1.59-2.95c0-1.28,0.41-2.45,1.25-3.51c-0.3-7.55-0.45-15.52-0.45-23.9
		c0.45-1.81,1.15-3.13,2.1-3.96c0.94-0.83,2.32-1.36,4.13-1.59c9.97,0.45,20.76,0.68,32.39,0.68c2.87,0.61,4.3,1.85,4.3,3.74
		c0,3.17-3.1,5.02-9.29,5.55c-1.66,0.08-3.47,0.11-5.44,0.11h-7.36c-1.44,0-5.4-0.3-11.89-0.91c0,9.44,0.15,15.93,0.45,19.48
		c4,0.08,11.7,0.11,23.11,0.11c2.72,0.53,4.08,1.76,4.08,3.68c0,1.93-1.1,3.42-3.29,4.47c-0.23,0.15-0.64,0.3-1.25,0.45l-19.59-0.34
		c-1.21,0-2.19,0.08-2.94,0.23l0.45,19.48c0,4.38-0.11,7.51-0.34,9.4l26.28-0.34c2.42,0.38,3.62,1.4,3.62,3.06
		c0,1.13-0.51,2.27-1.53,3.4c-1.02,1.13-2.21,1.85-3.57,2.15l-29,0.45c-1.74,0-2.94-0.32-3.62-0.96c-0.68-0.64-1.02-1.72-1.02-3.23
		c0.3-2.11,0.45-5.51,0.45-10.19v-7.93L530.4,593.81z"/>
	<path d="M604.36,557.79c4.91,0,9.08,0.83,12.52,2.49c3.44,1.66,5.15,3.78,5.15,6.34c0,1.13-0.28,2.12-0.85,2.95
		c-0.57,0.83-1.4,1.25-2.49,1.25c-1.1,0-3.45-0.85-7.08-2.55c-3.62-1.7-6.93-2.55-9.91-2.55c-2.98,0-6.06,0.95-9.23,2.83
		c-3.17,1.89-4.76,4.19-4.76,6.91c0,3.7,1.93,6.42,5.78,8.16c2.87,1.28,6.98,2.43,12.35,3.45c5.36,1.02,9.74,3.1,13.14,6.23
		c3.4,3.13,5.1,7.87,5.1,14.21c0,9.67-2.91,16.8-8.72,21.41c-3.25,2.57-7.83,3.85-13.76,3.85c-5.93,0-11.84-1.62-17.73-4.87
		c-3.85-2.04-5.78-4.08-5.78-6.12c0-0.75,0.32-1.59,0.96-2.49c0.64-0.91,1.53-1.66,2.66-2.27c1.13-0.6,2.17-0.7,3.11-0.28
		c0.94,0.42,2.47,1.15,4.59,2.21c2.11,1.06,3.66,1.78,4.64,2.15c3.17,1.21,6.15,1.81,8.95,1.81c2.79,0,5.49-1.38,8.1-4.13
		c2.61-2.76,3.91-6.13,3.91-10.14c0-5.29-2.64-8.99-7.93-11.1c-2.57-1.06-5.48-1.85-8.72-2.38c-6.72-1.21-11.78-3.23-15.18-6.06
		c-3.4-2.83-5.1-7.12-5.1-12.86c0-5.74,2.45-10.25,7.36-13.54C590.36,559.43,596.66,557.79,604.36,557.79z"/>
</g>
</svg>
