<?xml version="1.0" encoding="utf-8"?>
<!-- Generator: Adobe Illustrator 23.0.1, SVG Export Plug-In . SVG Version: 6.00 Build 0)  -->
<svg version="1.1" id="Layer_1" xmlns="http://www.w3.org/2000/svg" xmlns:xlink="http://www.w3.org/1999/xlink" x="0px" y="0px"
	 viewBox="0 0 256 256" style="enable-background:new 0 0 256 256;" xml:space="preserve">
<style type="text/css">
	.st0{fill:#FCFCFC;}
</style>
<g id="pawprint">
	<path id="paw_base" class="st0" d="M63.13,221.48c15.25,12.8,42.51,6.13,64.6-14.47c22.1,20.6,49.35,27.27,64.6,14.47
		c17.33-14.54,12.61-48.69-10.55-76.29c-16.04-19.12-36.72-30.07-53.68-30.15c-0.13,0-0.26,0-0.38,0c-0.13,0-0.26,0-0.38,0
		c-16.95,0.09-37.63,11.03-53.68,30.15C50.52,172.78,45.8,206.94,63.13,221.48z"/>
	
		<ellipse transform="matrix(0.9571 -0.2897 0.2897 0.9571 -15.0296 30.4519)" class="st0" cx="95.34" cy="65.99" rx="26.97" ry="38.77"/>
	
		<ellipse transform="matrix(0.7071 -0.7071 0.7071 0.7071 -63.5379 57.3097)" class="st0" cx="37.41" cy="105.35" rx="26.97" ry="38.77"/>
	
		<ellipse transform="matrix(0.2897 -0.9571 0.9571 0.2897 53.6164 204.2283)" class="st0" cx="164.41" cy="65.99" rx="38.77" ry="26.97"/>
	
		<ellipse transform="matrix(0.5736 -0.8192 0.8192 0.5736 3.6186 228.0525)" class="st0" cx="220.85" cy="110.55" rx="38.77" ry="26.97"/>
</g>
</svg>
